<?xml version="1.0" encoding="utf-8"?>
<!-- Generator: Adobe Illustrator 15.0.0, SVG Export Plug-In . SVG Version: 6.00 Build 0)  -->
<!DOCTYPE svg PUBLIC "-//W3C//DTD SVG 1.1//EN" "http://www.w3.org/Graphics/SVG/1.1/DTD/svg11.dtd">
<svg version="1.1" id="Capa_1" xmlns="http://www.w3.org/2000/svg" xmlns:xlink="http://www.w3.org/1999/xlink" x="0px" y="0px"
	 width="50px" height="50px" viewBox="0 0 600 600" enable-background="new 0 0 600 600" xml:space="preserve">
<g>
	<path fill="#4D3D4D" d="M500,423.139C500,465.587,465.587,500,423.138,500H176.862C134.413,500,100,465.587,100,423.139V176.862
		C100,134.413,134.413,100,176.862,100h246.275C465.587,100,500,134.413,500,176.862V423.139z"/>
	<path fill="#423143" d="M500,423.139v-86.632L384.951,228.758l-1.059,2.014l26.301,90.271l-3.902,17.728l-19.923,18.76
		l-50.141,46.888l-15.146,5.918l-92.31-26.404L359.603,500h63.535C465.587,500,500,465.587,500,423.139z"/>
	<g>
		<path fill="#8DB3B3" d="M332.313,322.186c0.006-0.486-0.302-0.924-0.762-1.081c-0.458-0.164-0.971-0.016-1.271,0.368
			c-43.146,54.888-81.38,60.817-95.815,60.817c-3.004,0-4.674-0.277-4.689-0.281c-0.481-0.086-0.971,0.156-1.2,0.595
			s-0.148,0.971,0.196,1.327c23.974,24.4,50.567,29.524,68.656,29.524c13.986,0,23.264-2.994,23.654-3.12
			c0.031-0.008,0.059-0.02,0.09-0.035c2.887-1.225,11.38-9.452,13.925-48.183C336.48,341.078,332.312,322.393,332.313,322.186z"/>
		<path fill="#8DB3B3" d="M372.116,301.984c-17.348-11.992-35.517-18.012-35.695-18.12c-0.416-0.254-0.947-0.213-1.318,0.096
			c-0.378,0.313-0.513,0.828-0.339,1.282c24.945,65.21,10.396,101.064,2.98,113.448c-1.54,2.58-2.636,3.867-2.646,3.879
			c-0.321,0.372-0.364,0.916-0.106,1.335c0.259,0.423,0.756,0.63,1.235,0.513c33.253-8.036,51.305-28.225,60.593-43.748
			c7.183-12.001,9.381-21.501,9.471-21.899c0.008-0.027,0.012-0.059,0.018-0.094C406.739,335.571,404.038,324.056,372.116,301.984z"
			/>
		<path fill="#8DB3B3" d="M400.365,247.087c-7.512-11.795-15.021-18.013-15.338-18.273c-0.023-0.018-0.049-0.037-0.076-0.057
			c-2.583-1.777-14.089-4.519-48.119,14.142c-18.49,10.14-32.012,23.69-32.186,23.802c-0.415,0.256-0.617,0.751-0.507,1.223
			c0.111,0.474,0.513,0.826,0.998,0.875c69.476,6.898,95.018,35.964,102.77,48.137c1.617,2.532,2.28,4.09,2.286,4.105
			c0.186,0.45,0.652,0.732,1.146,0.689c0.492-0.044,0.896-0.396,1.011-0.877C420.056,287.526,410.086,262.343,400.365,247.087z"/>
		<path fill="#8DB3B3" d="M267.814,276.175c-0.027,0.487,0.258,0.938,0.71,1.12c0.45,0.184,0.969,0.061,1.286-0.312
			c45.684-52.795,84.157-56.917,98.575-56.238c2.998,0.141,4.655,0.496,4.669,0.5c0.478,0.107,0.979-0.11,1.228-0.537
			c0.248-0.428,0.193-0.965-0.133-1.331c-22.797-25.508-49.121-31.875-67.193-32.726c-13.967-0.66-23.379,1.895-23.772,2.002
			c-0.027,0.01-0.061,0.02-0.09,0.029c-2.941,1.088-11.813,8.911-16.177,47.475C264.543,257.112,267.826,275.97,267.814,276.175z"/>
		<path fill="#8DB3B3" d="M227.876,294.601c16.623,12.428,34.339,19.102,34.511,19.211c0.399,0.271,0.928,0.255,1.312-0.031
			c0.387-0.281,0.546-0.778,0.391-1.225c-21.661-64.418-5.578-98.542,2.345-110.219c1.646-2.431,2.795-3.634,2.805-3.646
			c0.334-0.343,0.403-0.869,0.166-1.29c-0.237-0.418-0.72-0.642-1.202-0.55c-33.312,6.274-52.134,25.042-62.061,39.678
			c-7.674,11.315-10.292,20.432-10.4,20.815c-0.008,0.029-0.014,0.059-0.02,0.092C195.149,260.429,197.287,271.727,227.876,294.601z
			"/>
		<path fill="#8DB3B3" d="M295.958,343.916c0.442-0.203,0.703-0.665,0.65-1.15c-0.051-0.485-0.403-0.885-0.881-0.986
			c-68.12-15.312-89.932-47.268-96.147-60.298c-1.293-2.708-1.763-4.335-1.765-4.349c-0.133-0.476-0.56-0.812-1.055-0.828
			c-0.493-0.018-0.939,0.282-1.11,0.746c-11.703,32.144-4.877,58.353,2.912,74.678c6.022,12.623,12.717,19.712,12.999,20.006
			c0.021,0.02,0.045,0.043,0.07,0.066c2.349,2.078,13.434,6.2,49.483-8.177C280.703,355.808,295.771,344.006,295.958,343.916z"/>
	</g>
</g>
</svg>
