<?xml version="1.0" encoding="UTF-8"?>
<svg width="59px" height="51px" viewBox="0 0 59 51" version="1.1" xmlns="http://www.w3.org/2000/svg" xmlns:xlink="http://www.w3.org/1999/xlink">
    <!-- Generator: sketchtool 55.2 (78181) - https://sketchapp.com -->
    <title>FFBED18C-8532-490C-824E-F307C30FDECB@1.00x</title>
    <desc>Created with sketchtool.</desc>
    <g id="Page-1" stroke="none" stroke-width="1" fill="none" fill-rule="evenodd">
        <g id="Sowary-Search" transform="translate(-31.000000, -12.000000)" fill="#32C6B0" fill-rule="nonzero">
            <g id="Header" transform="translate(0.000000, 1.000000)">
                <g id="Logo" transform="translate(31.000000, 11.000000)">
                    <g id="Logo-icon" transform="translate(8.260000, 0.000000)">
                        <path d="M22.184,12.7587048 C19.942,15.0075058 19.942,18.79496 22.184,21.162119 C24.426,23.5292779 28.202,23.4109199 30.562,21.162119 C32.804,18.913318 32.804,15.1258637 30.562,12.7587048 C28.32,10.5099038 24.544,10.5099038 22.184,12.7587048 Z M28.674,19.2683918 C27.376,20.5703292 25.37,20.5703292 24.072,19.2683918 C22.774,17.9664544 22.774,15.9543693 24.072,14.6524319 C25.37,13.3504945 27.376,13.3504945 28.674,14.6524319 C29.972,15.9543693 29.972,17.9664544 28.674,19.2683918 Z" id="Shape"></path>
                        <path d="M27.848,1.63305785 L26.904,2.57992142 L26.432,2.10648964 C26.196,1.86977374 25.724,1.86977374 25.488,2.10648964 L22.656,4.94708034 C22.42,5.18379623 22.42,5.65722802 22.656,5.89394391 L23.128,6.36737569 L21.712,7.78767105 L15.694,1.7514158 C13.924,-0.0239533938 10.974,-0.0239533938 9.204,1.7514158 L1.77,9.2079664 C-5.89528426e-14,10.9833356 -5.89528426e-14,13.9422842 1.77,15.7176534 L10.974,24.9495732 L18.408,32.4061238 C20.178,34.181493 23.128,34.181493 24.898,32.4061238 L32.332,24.9495732 L41.536,15.7176534 C43.306,13.9422842 43.306,10.9833356 41.536,9.2079664 L34.22,1.63305785 C32.45,-0.14231134 29.618,-0.14231134 27.848,1.63305785 Z M11.328,4.23693266 L12.272,3.2900691 C12.508,3.0533532 12.98,3.0533532 13.216,3.2900691 L14.16,4.23693266 L12.744,5.65722802 L11.328,4.23693266 Z M14.16,6.95916542 L15.576,5.53887007 L16.992,6.95916542 L15.576,8.37946078 L14.16,6.95916542 Z M16.874,9.79975613 L18.29,8.37946078 L19.706,9.79975613 L18.29,11.2200515 L16.874,9.79975613 Z M5.546,10.036472 L10.148,5.42051213 L17.11,12.4036309 L12.508,16.9012329 L5.546,10.036472 Z M3.54,12.9954207 C3.304,12.7587048 3.304,12.285273 3.54,12.0485571 L4.484,11.1016935 L5.9,12.5219889 L4.484,13.9422842 L3.54,12.9954207 Z M5.782,15.3625796 L7.198,13.9422842 L8.614,15.3625796 L7.198,16.7828749 L5.782,15.3625796 Z M8.614,18.0848124 L10.03,16.664517 L11.446,18.0848124 L10.03,19.5051077 L8.614,18.0848124 Z M39.53,10.7466197 C40.474,11.6934833 40.474,13.1137786 39.53,13.9422842 L23.364,30.1573229 C22.42,31.1041864 21.004,31.1041864 20.178,30.1573229 L13.216,23.174204 C12.272,22.2273405 12.272,20.8070451 13.216,19.9785395 L29.382,3.76350088 C30.326,2.81663731 31.742,2.81663731 32.568,3.76350088 L39.53,10.7466197 Z" id="Shape"></path>
                    </g>
                    <g id="Text" transform="translate(0.000000, 40.572822)">
                        <path d="M4.366,10.4154993 C3.776,10.4154993 3.068,10.2971413 2.478,10.0604254 C1.888,9.82370952 1.298,9.46863569 0.826,8.9952039 L2.006,7.4565506 C2.36,7.6932665 2.714,8.04834033 3.186,8.16669828 C3.658,8.40341417 4.012,8.40341417 4.366,8.40341417 C5.31,8.40341417 5.664,8.04834033 5.664,7.4565506 C5.664,7.10147676 5.546,6.98311882 5.31,6.74640293 C5.074,6.62804498 4.72,6.39132909 4.248,6.27297114 L3.068,5.9178973 C2.596,5.68118141 2.124,5.44446552 1.77,4.97103374 C1.416,4.49760195 1.18,4.02417017 1.18,3.31402249 C1.18,2.48551687 1.534,1.89372714 2.124,1.30193741 C2.714,0.710147676 3.54,0.473431784 4.602,0.473431784 C5.192,0.473431784 5.664,0.59178973 6.254,0.828505623 C6.844,1.06522151 7.316,1.30193741 7.67,1.77536919 L6.608,3.19566454 C6.254,2.95894865 6.018,2.72223276 5.664,2.60387481 C5.31,2.48551687 4.956,2.36715892 4.602,2.36715892 C4.248,2.36715892 3.894,2.48551687 3.658,2.60387481 C3.422,2.72223276 3.304,2.95894865 3.304,3.19566454 C3.304,3.43238044 3.422,3.66909633 3.776,3.90581222 C4.012,4.02417017 4.366,4.26088606 4.838,4.379244 L6.018,4.85267579 C6.608,5.08939168 7.08,5.44446552 7.434,5.79953936 C7.788,6.1546132 7.906,6.74640293 7.906,7.4565506 C7.906,8.28505623 7.552,8.9952039 6.962,9.58699363 C6.372,10.0604254 5.428,10.4154993 4.366,10.4154993 Z" id="Path"></path>
                        <path d="M14.16,10.4154993 C12.862,10.4154993 11.8,9.94206747 10.974,9.11356185 C10.148,8.16669828 9.794,6.98311882 9.794,5.44446552 C9.794,3.90581222 10.148,2.60387481 10.974,1.77536919 C11.8,0.946863569 12.862,0.473431784 14.16,0.473431784 C15.458,0.473431784 16.52,0.946863569 17.346,1.77536919 C18.172,2.60387481 18.526,3.90581222 18.526,5.44446552 C18.526,6.98311882 18.172,8.28505623 17.346,9.11356185 C16.52,9.94206747 15.458,10.4154993 14.16,10.4154993 Z M14.16,8.52177212 C14.868,8.52177212 15.34,8.28505623 15.694,7.6932665 C16.048,7.10147676 16.284,6.39132909 16.284,5.44446552 C16.284,4.49760195 16.048,3.78745427 15.694,3.19566454 C15.34,2.60387481 14.75,2.36715892 14.16,2.36715892 C13.452,2.36715892 12.98,2.60387481 12.626,3.19566454 C12.272,3.78745427 12.036,4.49760195 12.036,5.44446552 C12.036,6.39132909 12.272,7.21983471 12.626,7.6932665 C12.98,8.16669828 13.57,8.52177212 14.16,8.52177212 Z" id="Shape"></path>
                        <path d="M21.948,10.1787834 L20.178,0.59178973 L22.42,0.59178973 L23.128,5.08939168 C23.128,5.56282347 23.246,6.1546132 23.364,6.62804498 C23.482,7.10147676 23.482,7.6932665 23.6,8.16669828 L23.6,8.16669828 C23.718,7.6932665 23.836,7.10147676 23.836,6.62804498 C23.836,6.1546132 24.072,5.56282347 24.072,5.08939168 L25.134,0.59178973 L27.022,0.59178973 L28.084,5.08939168 C28.202,5.56282347 28.32,6.03625525 28.32,6.62804498 C28.438,7.10147676 28.556,7.6932665 28.556,8.16669828 L28.556,8.16669828 C28.674,7.6932665 28.674,7.10147676 28.792,6.62804498 C28.91,6.1546132 28.91,5.56282347 29.028,5.08939168 L29.736,0.59178973 L31.86,0.59178973 L30.208,10.1787834 L27.494,10.1787834 L26.55,5.79953936 C26.432,5.44446552 26.432,5.08939168 26.314,4.6159599 C26.196,4.26088606 26.196,3.90581222 26.196,3.55073838 L26.196,3.55073838 C26.196,3.90581222 26.078,4.26088606 25.96,4.6159599 C25.842,4.97103374 25.842,5.32610757 25.724,5.79953936 L24.78,10.1787834 L21.948,10.1787834 Z" id="Path"></path>
                        <path d="M38.822,10.1787834 L38.232,7.92998239 L35.4,7.92998239 L34.81,10.1787834 L32.568,10.1787834 L35.518,0.59178973 L38.114,0.59178973 L41.064,10.1787834 L38.822,10.1787834 Z M35.99,5.32610757 L35.754,6.1546132 L37.76,6.1546132 L37.524,5.32610757 C37.406,4.85267579 37.288,4.379244 37.17,3.78745427 C37.052,3.19566454 36.934,2.72223276 36.816,2.24880098 L36.816,2.24880098 C36.698,2.72223276 36.58,3.31402249 36.462,3.78745427 C36.344,4.26088606 36.226,4.85267579 35.99,5.32610757 Z" id="Shape"></path>
                        <path d="M45.076,10.1787834 L42.952,10.1787834 L42.952,0.59178973 L46.374,0.59178973 C47.436,0.59178973 48.262,0.828505623 48.97,1.18357946 C49.678,1.65701125 50.032,2.36715892 50.032,3.55073838 C50.032,4.26088606 49.914,4.85267579 49.56,5.32610757 C49.206,5.79953936 48.852,6.1546132 48.38,6.39132909 L50.504,10.2971413 L48.026,10.2971413 L46.138,6.86476087 L44.958,6.86476087 L44.958,10.1787834 L45.076,10.1787834 Z M45.076,4.97103374 L46.138,4.97103374 C47.318,4.97103374 47.908,4.49760195 47.908,3.55073838 C47.908,3.0773066 47.79,2.72223276 47.436,2.60387481 C47.082,2.36715892 46.728,2.36715892 46.138,2.36715892 L45.076,2.36715892 L45.076,4.97103374 Z" id="Shape"></path>
                        <path d="M54.162,10.1787834 L54.162,6.74640293 L51.212,0.59178973 L53.572,0.59178973 L54.398,2.84059071 C54.516,3.19566454 54.634,3.55073838 54.752,3.90581222 C54.87,4.26088606 54.988,4.6159599 55.106,4.97103374 L55.106,4.97103374 C55.224,4.6159599 55.342,4.26088606 55.46,3.90581222 C55.578,3.55073838 55.696,3.19566454 55.814,2.84059071 L56.64,0.59178973 L58.882,0.59178973 L55.932,6.74640293 L55.932,10.1787834 L54.162,10.1787834 Z" id="Path"></path>
                    </g>
                </g>
            </g>
        </g>
    </g>
</svg>